HIERARCHY
ROOT Hips
{
 OFFSET 0.000000 0.000000 0.000000
 CHANNELS 6 Xposition Yposition Zposition Yrotation Xrotation Zrotation
 JOINT Chest
 {
  OFFSET 0.000000 9.588913 -0.003946
  CHANNELS 3 Yrotation Xrotation Zrotation
  JOINT Chest2
  {
   OFFSET 0.000000 9.541882 0.008053
   CHANNELS 3 Yrotation Xrotation Zrotation
   JOINT Chest3
   {
    OFFSET 0.000000 9.501360 0.000000
    CHANNELS 3 Yrotation Xrotation Zrotation
    JOINT Chest4
    {
     OFFSET 0.000000 9.491660 0.000000
     CHANNELS 3 Yrotation Xrotation Zrotation
     JOINT Neck
     {
      OFFSET 0.000000 14.331917 0.000000
      CHANNELS 3 Yrotation Xrotation Zrotation
      JOINT Head
      {
       OFFSET 0.000000 8.884799 0.017034
       CHANNELS 3 Yrotation Xrotation Zrotation
       End Site
       {
        OFFSET 0.000000 16.896195 0.008993
       }
      }
     }
     JOINT RightCollar
     {
      OFFSET -2.923010 9.499495 0.000000
      CHANNELS 3 Yrotation Xrotation Zrotation
      JOINT RightShoulder
      {
       OFFSET -13.795216 0.000000 0.000000
       CHANNELS 3 Yrotation Xrotation Zrotation
       JOINT RightElbow
       {
        OFFSET -30.272209 0.000000 0.000000
        CHANNELS 3 Yrotation Xrotation Zrotation
        JOINT RightWrist
        {
         OFFSET -24.478199 0.000000 0.000000
         CHANNELS 3 Yrotation Xrotation Zrotation
         End Site
         {
          OFFSET -18.090752 0.000000 0.000000
         }
        }
       }
      }
     }
     JOINT LeftCollar
     {
      OFFSET 2.923010 9.499495 0.000000
      CHANNELS 3 Yrotation Xrotation Zrotation
      JOINT LeftShoulder
      {
       OFFSET 13.795216 0.000000 0.000000
       CHANNELS 3 Yrotation Xrotation Zrotation
       JOINT LeftElbow
       {
        OFFSET 30.272209 0.000000 0.000000
        CHANNELS 3 Yrotation Xrotation Zrotation
        JOINT LeftWrist
        {
         OFFSET 24.478199 0.000000 0.000000
         CHANNELS 3 Yrotation Xrotation Zrotation
         End Site
         {
          OFFSET 18.090752 0.000000 0.000000
         }
        }
       }
      }
     }
    }
   }
  }
 }
 JOINT RightHip
 {
  OFFSET -7.826875 0.019532 0.001973
  CHANNELS 3 Yrotation Xrotation Zrotation
  JOINT RightKnee
  {
   OFFSET 0.000000 -40.546152 -0.001885
   CHANNELS 3 Yrotation Xrotation Zrotation
   JOINT RightAnkle
   {
    OFFSET 0.000000 -39.417092 -0.003189
    CHANNELS 3 Yrotation Xrotation Zrotation
    JOINT RightToe
    {
     OFFSET 0.000000 -7.579396 17.243563
     CHANNELS 3 Yrotation Xrotation Zrotation
     End Site
     {
      OFFSET 0.000000 -1.500329 6.694466
     }
    }
   }
  }
 }
 JOINT LeftHip
 {
  OFFSET 7.826875 0.019532 0.001973
  CHANNELS 3 Yrotation Xrotation Zrotation
  JOINT LeftKnee
  {
   OFFSET 0.000000 -40.546152 -0.001885
   CHANNELS 3 Yrotation Xrotation Zrotation
   JOINT LeftAnkle
   {
    OFFSET 0.000000 -39.417092 -0.003189
    CHANNELS 3 Yrotation Xrotation Zrotation
    JOINT LeftToe
    {
     OFFSET 0.000000 -7.579396 17.243563
     CHANNELS 3 Yrotation Xrotation Zrotation
     End Site
     {
      OFFSET 0.000000 -1.500329 6.694466
     }
    }
   }
  }
 }
}
MOTION
Frames: 10
Frame Time: 0.008333
0.000000 87.345680 0.000000 0.000000 -5.767889 0.000000 0.000000 11.653876 0.000000 0.000000 -5.885988 0.000000 0.000000 -0.000000 0.000000 0.000000 -0.000000 0.000000 0.000000 12.528808 0.000000 0.000000 0.711711 0.000000 0.000000 -0.000000 0.000000 0.000000 -0.000000 0.000000 2.309063 -0.000000 0.000000 -2.309063 -0.000000 -0.000000 0.000000 -0.000000 0.000000 0.000000 0.000000 0.000000 -2.309063 0.000000 0.000000 2.309063 -0.000000 0.000000 0.000000 8.520374 0.000000 0.000000 1.905768 0.000000 -0.000000 -4.658254 0.000000 0.000000 -0.000000 0.000000 0.000000 8.520374 0.000000 0.000000 1.905768 0.000000 -0.000000 -4.658254 0.000000 0.000000 -0.000000 0.000000
-1.035538 89.303252 15.335476 -46.586780 -5.049013 1.197126 2.065638 3.356743 0.650892 1.187804 1.925550 0.297034 1.486524 2.405941 0.377582 1.187804 1.925550 0.297034 6.744780 25.959062 1.309622 7.137320 2.840875 -0.096206 -6.379733 -0.189440 -0.043969 4.299622 -1.112585 86.365515 0.666111 -5.300430 0.223202 1.910592 -3.097173 1.356557 -4.518803 0.749355 -0.038390 2.129377 -0.487467 -85.240465 -1.622993 5.404067 2.280884 1.639367 7.227530 -4.633027 -7.447761 7.004423 -4.608217 3.786886 0.058371 -0.168264 2.423732 -2.542660 0.434071 0.057483 0.200035 0.060646 5.114690 4.023878 4.887574 9.113340 3.650130 -0.016347 10.091064 -2.447075 -3.894048 -0.059140 -0.030086 -0.061643
-1.049693 89.306512 15.378769 -46.640332 -5.076607 1.171478 2.058373 3.344231 0.625554 1.183996 1.915365 0.285833 1.481695 2.393249 0.363526 1.183996 1.915365 0.285833 6.742960 25.710693 1.222985 7.148849 2.531358 -0.193274 -6.356835 -0.243878 -0.014018 4.437811 -1.112219 86.537286 0.629529 -5.211782 0.256306 1.839677 -3.071700 1.371367 -4.648920 0.610429 -0.099329 2.080404 -0.630714 -85.260123 -1.194098 4.744366 2.283809 1.587681 6.864919 -4.469333 -7.428326 7.058981 -4.592023 3.793566 0.050895 -0.183222 2.452321 -2.536301 0.444302 0.060579 0.184281 0.060407 5.148214 4.148321 4.895015 9.134102 3.518788 -0.027280 10.111581 -2.399460 -3.861160 -0.062264 -0.041205 -0.062171
-1.064522 89.310180 15.428615 -46.682981 -5.103477 1.149396 2.047259 3.331755 0.600835 1.177614 1.906614 0.273678 1.473644 2.382356 0.348269 1.177614 1.906615 0.273678 6.742278 25.455920 1.137940 7.161242 2.215189 -0.288696 -6.333333 -0.295119 0.012652 4.569391 -1.124530 86.720278 0.590437 -5.143106 0.287863 1.757496 -3.046016 1.387175 -4.778978 0.465935 -0.157087 2.050528 -0.753811 -85.301041 -0.820677 4.093724 2.280106 1.559686 6.508917 -4.297953 -7.416750 7.112181 -4.581991 3.798138 0.052579 -0.197913 2.476943 -2.537742 0.455233 0.064040 0.166786 0.061257 5.160658 4.272359 4.897774 9.159301 3.393930 -0.045570 10.138486 -2.350811 -3.824981 -0.064254 -0.058224 -0.061105
-1.079295 89.313946 15.482542 -46.723171 -5.126121 1.131771 2.033015 3.317649 0.576208 1.169286 1.897920 0.260412 1.463155 2.371538 0.331612 1.169286 1.897921 0.260412 6.746139 25.198421 1.056554 7.177945 1.897251 -0.380938 -6.307811 -0.341589 0.039068 4.701075 -1.149913 86.907852 0.546843 -5.084696 0.321353 1.665379 -3.027127 1.405337 -4.900268 0.316736 -0.209450 2.041019 -0.852611 -85.365386 -0.504747 3.497713 2.283852 1.544909 6.153783 -4.119636 -7.402808 7.158482 -4.577985 3.810392 0.063600 -0.210411 2.488774 -2.546793 0.464575 0.066723 0.149532 0.063612 5.161167 4.389803 4.897507 9.193127 3.280742 -0.070546 10.161816 -2.305225 -3.787848 -0.065577 -0.079177 -0.058598
-1.093542 89.317442 15.537881 -46.763115 -5.140689 1.115883 2.016120 3.300381 0.552469 1.159327 1.887938 0.246887 1.450627 2.359110 0.314620 1.159327 1.887938 0.246886 6.754645 24.942393 0.980168 7.198870 1.582737 -0.468542 -6.278127 -0.381577 0.065775 4.829946 -1.183707 87.096254 0.503334 -5.030925 0.354953 1.566193 -3.014693 1.429133 -5.006919 0.164566 -0.255517 2.051346 -0.929011 -85.451886 -0.245379 2.983832 2.297690 1.532635 5.817083 -3.923745 -7.382463 7.193965 -4.576856 3.828200 0.081678 -0.217022 2.487484 -2.561086 0.469819 0.067898 0.133197 0.066616 5.157295 4.496831 4.896979 9.233654 3.175596 -0.099474 10.177038 -2.263390 -3.752529 -0.066054 -0.100711 -0.054193
-1.106889 89.320345 15.592972 -46.802743 -5.145394 1.100384 1.998823 3.279268 0.529879 1.149212 1.875953 0.233450 1.437902 2.344179 0.297732 1.149212 1.875953 0.233450 6.764366 24.691111 0.910284 7.219872 1.275323 -0.549085 -6.244683 -0.413151 0.093226 4.954078 -1.223813 87.284140 0.464211 -4.996716 0.387617 1.461819 -2.996416 1.458575 -5.105528 0.017025 -0.295882 2.087474 -0.997417 -85.549901 -0.039243 2.572746 2.309784 1.501193 5.531468 -3.720943 -7.360672 7.214921 -4.578733 3.839651 0.108051 -0.215995 2.494447 -2.581077 0.470629 0.069042 0.118395 0.069797 5.150163 4.590844 4.895964 9.273235 3.077045 -0.130553 10.194537 -2.225839 -3.718503 -0.065988 -0.120602 -0.048955
-1.119170 89.322435 15.647506 -46.842941 -5.141866 1.086493 1.982611 3.255085 0.507243 1.140009 1.862270 0.219740 1.426315 2.327125 0.280502 1.140008 1.862270 0.219740 6.773576 24.446676 0.848460 7.238682 0.977321 -0.620484 -6.209867 -0.434834 0.119901 5.073420 -1.270289 87.476101 0.432487 -4.982475 0.418376 1.357888 -2.969383 1.489703 -5.201607 -0.120280 -0.329587 2.149422 -1.069020 -85.652822 0.109812 2.263735 2.306255 1.444509 5.312400 -3.517039 -7.343112 7.222771 -4.585474 3.847677 0.141315 -0.209762 2.517283 -2.606872 0.468097 0.070763 0.105945 0.073837 5.141520 4.670790 4.893106 9.305264 2.989931 -0.162886 10.221085 -2.195372 -3.686099 -0.066249 -0.138332 -0.043406
-1.130625 89.323577 15.701843 -46.880756 -5.133809 1.074443 1.967843 3.229276 0.484133 1.131937 1.847666 0.205879 1.416143 2.308918 0.263086 1.131937 1.847666 0.205878 6.780022 24.210588 0.795678 7.252555 0.690238 -0.681167 -6.180769 -0.447124 0.146363 5.184619 -1.319208 87.671251 0.410761 -4.962691 0.449292 1.263476 -2.942828 1.516566 -5.296919 -0.247027 -0.355895 2.219037 -1.146510 -85.760879 0.199121 2.041595 2.284446 1.375304 5.139749 -3.308120 -7.333168 7.224733 -4.596669 3.857518 0.175492 -0.200308 2.546094 -2.635692 0.463941 0.071627 0.095945 0.077618 5.129670 4.739817 4.887747 9.327218 2.915126 -0.194880 10.257103 -2.173349 -3.656542 -0.066935 -0.153167 -0.037486
-1.141074 89.323642 15.756106 -46.916485 -5.120391 1.064418 1.955086 3.201224 0.461336 1.125288 1.831796 0.192352 1.407751 2.289126 0.246093 1.125288 1.831796 0.192351 6.782776 23.984558 0.750352 7.260844 0.415986 -0.732674 -6.161845 -0.450580 0.171657 5.288722 -1.365795 87.866965 0.399322 -4.919622 0.477695 1.192695 -2.930444 1.535502 -5.388904 -0.360663 -0.377703 2.276549 -1.231827 -85.873916 0.235046 1.894814 2.248038 1.295561 4.980083 -3.100988 -7.324521 7.221689 -4.612046 3.862421 0.208027 -0.186087 2.577207 -2.666412 0.460302 0.071263 0.088963 0.078618 5.115797 4.798037 4.880247 9.342156 2.851389 -0.225874 10.293655 -2.160428 -3.629382 -0.067868 -0.164576 -0.032360
